<svg width="192" height="224" viewBox="0 0 192 224" fill="none" xmlns="http://www.w3.org/2000/svg">
<rect width="192" height="192" rx="96" fill="#F4F3F5"/>
<path d="M82.5 126V98.55C79.95 97.85 77.8125 96.45 76.0875 94.35C74.3625 92.25 73.5 89.8 73.5 87V66H79.5V87H82.5V66H88.5V87H91.5V66H97.5V87C97.5 89.8 96.6375 92.25 94.9125 94.35C93.1875 96.45 91.05 97.85 88.5 98.55V126H82.5ZM112.5 126V102H103.5V81C103.5 76.85 104.963 73.3125 107.888 70.3875C110.812 67.4625 114.35 66 118.5 66V126H112.5Z" fill="#C0C7D4" fill-opacity="0.5"/>
</svg>
